<svg width="704" height="119" viewBox="0 0 704 119" fill="none" xmlns="http://www.w3.org/2000/svg">
<path d="M149.566 47H142.23L131.142 7.8H138.142L146.318 37.2L154.326 7.8H160.598L168.662 37.256L176.838 7.8H183.838L172.75 47H165.414L157.462 17.712L149.566 47ZM199.885 47.84C196.898 47.84 194.247 47.1867 191.933 45.88C189.618 44.536 187.807 42.688 186.501 40.336C185.231 37.9467 184.597 35.2587 184.597 32.272C184.597 29.0987 185.231 26.3173 186.501 23.928C187.807 21.5013 189.581 19.6533 191.821 18.384C194.061 17.0773 196.562 16.424 199.325 16.424C202.125 16.424 204.57 17.0587 206.661 18.328C208.789 19.56 210.45 21.352 211.645 23.704C212.839 26.0187 213.455 28.7627 213.493 31.936V33.504H191.205C191.429 36.1547 192.306 38.2827 193.837 39.888C195.405 41.456 197.439 42.24 199.941 42.24C201.658 42.24 203.133 41.848 204.365 41.064C205.597 40.2427 206.455 39.0853 206.941 37.592H213.381C212.634 40.8027 211.066 43.3227 208.677 45.152C206.287 46.944 203.357 47.84 199.885 47.84ZM206.661 28.856C206.25 26.6907 205.391 25.0107 204.085 23.816C202.815 22.6213 201.229 22.024 199.325 22.024C197.383 22.024 195.722 22.64 194.341 23.872C192.959 25.0667 192.007 26.728 191.485 28.856H206.661ZM240.644 47.616C237.21 47.616 234.466 46.8507 232.412 45.32C230.396 43.752 229.388 41.6053 229.388 38.88C229.388 35.744 230.546 33.5413 232.86 32.272C235.212 31.0027 238.292 30.144 242.1 29.696C242.436 29.6587 243.444 29.5467 245.124 29.36C246.842 29.1733 248.074 28.8747 248.82 28.464C249.567 28.016 249.94 27.4187 249.94 26.672C249.903 25.216 249.343 24.0587 248.26 23.2C247.178 22.304 245.703 21.856 243.836 21.856C241.895 21.856 240.271 22.3413 238.964 23.312C237.658 24.2453 236.911 25.496 236.724 27.064H230.06C230.247 25.0107 230.956 23.1813 232.188 21.576C233.42 19.9333 235.044 18.664 237.06 17.768C239.114 16.872 241.41 16.424 243.948 16.424C247.868 16.424 250.911 17.3947 253.076 19.336C255.279 21.2773 256.38 23.872 256.38 27.12V40.56C256.38 41.4187 256.866 41.848 257.836 41.848H259.46V47H256.324C254.831 47 253.618 46.7013 252.684 46.104C251.788 45.5067 251.21 44.648 250.948 43.528C250.836 43.192 250.743 42.856 250.668 42.52C248.839 45.9173 245.498 47.616 240.644 47.616ZM241.988 42.408C244.303 42.408 246.207 41.8107 247.7 40.616C249.194 39.4213 249.94 37.8347 249.94 35.856V31.712C249.455 32.496 248.652 33.056 247.532 33.392C246.412 33.6907 244.844 33.9707 242.828 34.232C240.514 34.4933 238.796 34.8853 237.676 35.408C236.594 35.9307 236.052 36.9013 236.052 38.32C236.052 39.6267 236.556 40.6347 237.564 41.344C238.61 42.0533 240.084 42.408 241.988 42.408ZM263.821 47V17.32H269.141L269.925 23.144C271.866 19.0373 275.301 16.984 280.229 16.984H281.349V23.424H280.229C277.13 23.424 274.722 24.208 273.005 25.776C271.288 27.344 270.429 29.528 270.429 32.328V47H263.821ZM298.596 47.84C295.609 47.84 292.958 47.1867 290.644 45.88C288.329 44.536 286.518 42.688 285.212 40.336C283.942 37.9467 283.308 35.2587 283.308 32.272C283.308 29.0987 283.942 26.3173 285.212 23.928C286.518 21.5013 288.292 19.6533 290.532 18.384C292.772 17.0773 295.273 16.424 298.036 16.424C300.836 16.424 303.281 17.0587 305.372 18.328C307.5 19.56 309.161 21.352 310.356 23.704C311.55 26.0187 312.166 28.7627 312.204 31.936V33.504H289.916C290.14 36.1547 291.017 38.2827 292.548 39.888C294.116 41.456 296.15 42.24 298.652 42.24C300.369 42.24 301.844 41.848 303.076 41.064C304.308 40.2427 305.166 39.0853 305.652 37.592H312.092C311.345 40.8027 309.777 43.3227 307.388 45.152C304.998 46.944 302.068 47.84 298.596 47.84ZM305.372 28.856C304.961 26.6907 304.102 25.0107 302.796 23.816C301.526 22.6213 299.94 22.024 298.036 22.024C296.094 22.024 294.433 22.64 293.052 23.872C291.67 25.0667 290.718 26.728 290.196 28.856H305.372ZM27.7844 104.84C24.6484 104.84 21.9231 104.149 19.6084 102.768C17.2938 101.387 15.5204 99.5013 14.2884 97.112C13.0564 94.6853 12.4404 91.96 12.4404 88.936C12.4404 85.7627 13.0938 83.0187 14.4004 80.704C15.7071 78.352 17.5178 76.56 19.8324 75.328C22.1471 74.0587 24.7418 73.424 27.6164 73.424C30.3044 73.424 32.6751 73.9467 34.7284 74.992C36.8191 76 38.4618 77.4373 39.6564 79.304C40.8884 81.1707 41.5978 83.336 41.7844 85.8H35.2884C34.9898 83.7467 34.1498 82.1227 32.7684 80.928C31.3871 79.696 29.6511 79.08 27.5604 79.08C25.0218 79.08 22.9871 79.976 21.4564 81.768C19.9258 83.5227 19.1604 85.912 19.1604 88.936C19.1604 92.1093 19.9631 94.6107 21.5684 96.44C23.1738 98.2693 25.2458 99.184 27.7844 99.184C29.8004 99.184 31.4618 98.5867 32.7684 97.392C34.1124 96.16 34.9524 94.48 35.2884 92.352H41.7844C41.3738 96.1973 39.9178 99.24 37.4164 101.48C34.9151 103.72 31.7044 104.84 27.7844 104.84ZM60.6503 104.84C57.6636 104.84 55.013 104.187 52.6983 102.88C50.3836 101.536 48.573 99.688 47.2663 97.336C45.997 94.9467 45.3623 92.2587 45.3623 89.272C45.3623 86.0987 45.997 83.3173 47.2663 80.928C48.573 78.5013 50.3463 76.6533 52.5863 75.384C54.8263 74.0773 57.3276 73.424 60.0903 73.424C62.8903 73.424 65.3356 74.0587 67.4263 75.328C69.5543 76.56 71.2156 78.352 72.4103 80.704C73.605 83.0187 74.221 85.7627 74.2583 88.936V90.504H51.9703C52.1943 93.1547 53.0716 95.2827 54.6023 96.888C56.1703 98.456 58.205 99.24 60.7063 99.24C62.4236 99.24 63.8983 98.848 65.1303 98.064C66.3623 97.2427 67.221 96.0853 67.7063 94.592H74.1463C73.3996 97.8027 71.8316 100.323 69.4423 102.152C67.053 103.944 64.1223 104.84 60.6503 104.84ZM67.4263 85.856C67.0156 83.6907 66.157 82.0107 64.8503 80.816C63.581 79.6213 61.9943 79.024 60.0903 79.024C58.149 79.024 56.4876 79.64 55.1063 80.872C53.725 82.0667 52.773 83.728 52.2503 85.856H67.4263ZM86.1347 104H79.5267V62H86.1347V104ZM106.697 104.84C103.711 104.84 101.06 104.187 98.7452 102.88C96.4305 101.536 94.6199 99.688 93.3132 97.336C92.0439 94.9467 91.4092 92.2587 91.4092 89.272C91.4092 86.0987 92.0439 83.3173 93.3132 80.928C94.6199 78.5013 96.3932 76.6533 98.6332 75.384C100.873 74.0773 103.375 73.424 106.137 73.424C108.937 73.424 111.383 74.0587 113.473 75.328C115.601 76.56 117.263 78.352 118.457 80.704C119.652 83.0187 120.268 85.7627 120.305 88.936V90.504H98.0172C98.2412 93.1547 99.1185 95.2827 100.649 96.888C102.217 98.456 104.252 99.24 106.753 99.24C108.471 99.24 109.945 98.848 111.177 98.064C112.409 97.2427 113.268 96.0853 113.753 94.592H120.193C119.447 97.8027 117.879 100.323 115.489 102.152C113.1 103.944 110.169 104.84 106.697 104.84ZM113.473 85.856C113.063 83.6907 112.204 82.0107 110.897 80.816C109.628 79.6213 108.041 79.024 106.137 79.024C104.196 79.024 102.535 79.64 101.153 80.872C99.7719 82.0667 98.8199 83.728 98.2972 85.856H113.473ZM141.982 104.84C139.63 104.84 137.52 104.299 135.654 103.216C133.824 102.133 132.443 100.64 131.51 98.736L130.894 104H125.574V62H132.182V78.184C133.264 76.6907 134.664 75.5333 136.382 74.712C138.099 73.8533 139.984 73.424 142.038 73.424C144.614 73.424 146.91 74.096 148.926 75.44C150.979 76.7467 152.566 78.576 153.686 80.928C154.843 83.28 155.422 85.968 155.422 88.992C155.422 92.0533 154.843 94.7973 153.686 97.224C152.566 99.6133 150.979 101.48 148.926 102.824C146.91 104.168 144.595 104.84 141.982 104.84ZM140.526 99.24C142.915 99.24 144.856 98.288 146.35 96.384C147.88 94.48 148.646 92.016 148.646 88.992C148.646 86.0427 147.88 83.6533 146.35 81.824C144.856 79.9573 142.915 79.024 140.526 79.024C138.92 79.024 137.483 79.4533 136.214 80.312C134.944 81.1333 133.955 82.2907 133.246 83.784C132.536 85.24 132.182 86.92 132.182 88.824C132.182 90.84 132.536 92.6507 133.246 94.256C133.955 95.824 134.944 97.056 136.214 97.952C137.483 98.8107 138.92 99.24 140.526 99.24ZM160.571 104V74.32H165.891L166.675 80.144C168.616 76.0373 172.051 73.984 176.979 73.984H178.099V80.424H176.979C173.88 80.424 171.472 81.208 169.755 82.776C168.038 84.344 167.179 86.528 167.179 89.328V104H160.571ZM191.754 104.616C188.319 104.616 185.575 103.851 183.522 102.32C181.506 100.752 180.498 98.6053 180.498 95.88C180.498 92.744 181.655 90.5413 183.97 89.272C186.322 88.0027 189.402 87.144 193.21 86.696C193.546 86.6587 194.554 86.5467 196.234 86.36C197.951 86.1733 199.183 85.8747 199.93 85.464C200.676 85.016 201.05 84.4187 201.05 83.672C201.012 82.216 200.452 81.0587 199.37 80.2C198.287 79.304 196.812 78.856 194.946 78.856C193.004 78.856 191.38 79.3413 190.074 80.312C188.767 81.2453 188.02 82.496 187.834 84.064H181.17C181.356 82.0107 182.066 80.1813 183.298 78.576C184.53 76.9333 186.154 75.664 188.17 74.768C190.223 73.872 192.519 73.424 195.058 73.424C198.978 73.424 202.02 74.3947 204.186 76.336C206.388 78.2773 207.49 80.872 207.49 84.12V97.56C207.49 98.4187 207.975 98.848 208.946 98.848H210.57V104H207.434C205.94 104 204.727 103.701 203.794 103.104C202.898 102.507 202.319 101.648 202.058 100.528C201.946 100.192 201.852 99.856 201.778 99.52C199.948 102.917 196.607 104.616 191.754 104.616ZM193.098 99.408C195.412 99.408 197.316 98.8107 198.81 97.616C200.303 96.4213 201.05 94.8347 201.05 92.856V88.712C200.564 89.496 199.762 90.056 198.642 90.392C197.522 90.6907 195.954 90.9707 193.938 91.232C191.623 91.4933 189.906 91.8853 188.786 92.408C187.703 92.9307 187.162 93.9013 187.162 95.32C187.162 96.6267 187.666 97.6347 188.674 98.344C189.719 99.0533 191.194 99.408 193.098 99.408ZM227.326 104C224.115 104 221.651 103.235 219.934 101.704C218.254 100.136 217.414 97.8773 217.414 94.928V79.92H212.206V74.32H217.414V64.184H224.022V74.32H231.694V79.92H224.022V94.48C224.022 95.7493 224.339 96.72 224.974 97.392C225.609 98.064 226.542 98.4 227.774 98.4H231.134V104H227.326ZM239.836 70.344C238.641 70.344 237.633 69.9333 236.812 69.112C235.991 68.2533 235.58 67.2267 235.58 66.032C235.58 64.8373 235.991 63.8293 236.812 63.008C237.633 62.1867 238.641 61.776 239.836 61.776C241.068 61.776 242.076 62.1867 242.86 63.008C243.681 63.8293 244.092 64.8373 244.092 66.032C244.092 67.264 243.681 68.2907 242.86 69.112C242.076 69.9333 241.068 70.344 239.836 70.344ZM243.14 104H236.532V74.32H243.14V104ZM249.876 104V74.32H255.196L255.756 78.688C256.689 77.12 258.052 75.8507 259.844 74.88C261.636 73.9093 263.614 73.424 265.78 73.424C268.953 73.424 271.492 74.4133 273.396 76.392C275.3 78.3707 276.252 81.0213 276.252 84.344V104H269.644V84.68C269.644 83 269.121 81.6747 268.076 80.704C267.03 79.696 265.593 79.192 263.764 79.192C261.636 79.192 259.9 79.8453 258.556 81.152C257.212 82.4213 256.521 84.0453 256.484 86.024V104H249.876ZM296.131 116.096C293.368 116.096 290.923 115.667 288.795 114.808C286.704 113.949 285.061 112.736 283.867 111.168C282.709 109.6 282.131 107.771 282.131 105.68H288.739C288.739 107.099 289.429 108.293 290.811 109.264C292.192 110.235 293.965 110.72 296.131 110.72C298.707 110.72 300.685 110.029 302.067 108.648C303.448 107.267 304.139 105.419 304.139 103.104V98.904C303.168 100.36 301.861 101.499 300.219 102.32C298.613 103.141 296.765 103.552 294.675 103.552C292.061 103.552 289.709 102.917 287.619 101.648C285.565 100.379 283.941 98.6053 282.747 96.328C281.589 94.0507 281.011 91.456 281.011 88.544C281.011 85.632 281.589 83.0373 282.747 80.76C283.904 78.4453 285.509 76.6533 287.563 75.384C289.653 74.0773 292.005 73.424 294.619 73.424C296.896 73.424 298.931 73.928 300.723 74.936C302.552 75.9067 303.933 77.232 304.867 78.912L305.427 74.32H310.691V103.104C310.691 105.717 310.093 107.995 308.899 109.936C307.741 111.915 306.061 113.427 303.859 114.472C301.693 115.555 299.117 116.096 296.131 116.096ZM295.963 98.008C298.352 98.008 300.312 97.1307 301.843 95.376C303.373 93.584 304.139 91.288 304.139 88.488C304.139 85.688 303.373 83.4107 301.843 81.656C300.349 79.9013 298.389 79.024 295.963 79.024C293.536 79.024 291.576 79.9013 290.083 81.656C288.589 83.4107 287.843 85.7067 287.843 88.544C287.843 91.344 288.589 93.6213 290.083 95.376C291.613 97.1307 293.573 98.008 295.963 98.008Z" fill="white"/>
<line x1="365" y1="0.991526" x2="366" y2="118.992" stroke="white" stroke-width="2"/>
<path d="M584.741 91.2549C585.633 91.2549 586.456 91.1384 587.207 90.9055C587.962 90.6726 588.609 90.3427 589.158 89.9118C589.707 89.4809 590.138 88.9568 590.443 88.3435C590.751 87.7263 590.904 87.0237 590.904 86.2318V86.1619C590.904 84.6519 590.366 83.4718 589.292 82.6217C588.217 81.7716 586.711 81.3484 584.771 81.3484H577.37V91.2588H584.737L584.741 91.2549ZM572.224 76.8572H585.175C587.039 76.8572 588.697 77.1289 590.145 77.6646C591.594 78.2119 592.791 78.965 593.74 79.9277C594.487 80.6924 595.058 81.5852 595.458 82.61C595.862 83.631 596.064 84.7567 596.064 85.9872V86.0765C596.064 87.3653 595.862 88.5143 595.458 89.5236C595.054 90.5329 594.494 91.4102 593.759 92.1594C593.027 92.9047 592.162 93.518 591.155 94.0032C590.149 94.4846 589.063 94.8301 587.885 95.0319L597.151 107.59H590.79L582.046 95.6491H577.37V107.59H572.217V76.8533L572.224 76.8572Z" fill="#FCFCFD"/>
<path d="M610.202 82.0816H600.933V76.8567H624.605V82.0816H615.332V107.593H610.202V82.0816Z" fill="#FCFCFD"/>
<path d="M631.024 76.8567H652.837V82.0816H636.151V89.6124H650.897V94.8374H636.151V102.368H653.054V107.593H631.024V76.8567Z" fill="#FCFCFD"/>
<path d="M521.134 92.1551C522.102 92.1551 522.978 92.027 523.779 91.7746C524.575 91.5223 525.261 91.1613 525.829 90.6916C526.405 90.2219 526.843 89.6668 527.144 89.0302C527.449 88.3897 527.598 87.6715 527.598 86.868V86.802C527.598 85.0862 527.018 83.7897 525.863 82.9085C524.709 82.0273 523.173 81.5887 521.267 81.5887H515.31V92.1512H521.134V92.1551ZM510.183 76.9033H521.457C523.15 76.9033 524.69 77.1323 526.081 77.5826C527.472 78.0329 528.661 78.6812 529.652 79.5158C530.643 80.3504 531.405 81.3674 531.931 82.5669C532.461 83.7703 532.728 85.1251 532.728 86.6506V86.7399C532.728 88.4091 532.411 89.8609 531.782 91.107C531.15 92.3491 530.296 93.3934 529.221 94.2474C528.146 95.0975 526.889 95.7341 525.456 96.1572C524.023 96.5803 522.502 96.7938 520.893 96.7938H515.31V107.64H510.18V76.9033H510.183Z" fill="#FCFCFD"/>
<path d="M698.969 86.7634C697.113 88.6538 694.095 88.6538 692.216 86.7634C690.363 84.8729 690.363 81.7985 692.216 79.8809C694.068 77.9633 697.086 77.9904 698.969 79.8809C700.848 81.7713 700.848 84.8457 698.969 86.7634ZM689.952 77.5712C686.834 80.7504 686.834 85.8861 689.952 89.042L695.592 94.7871L701.233 89.042C704.351 85.8628 704.351 80.7271 701.233 77.5712C698.116 74.392 693.065 74.392 689.948 77.5712" fill="#FCFCFD"/>
<path d="M672.428 91.1614C673.32 91.1614 674.143 91.0449 674.894 90.812C675.649 90.5791 676.297 90.2491 676.846 89.8183C677.395 89.3874 677.825 88.8633 678.13 88.25C678.439 87.6328 678.591 86.9302 678.591 86.1383V86.0684C678.591 84.5584 678.054 83.3783 676.979 82.5282C675.904 81.6781 674.399 81.2549 672.459 81.2549H665.057V91.1653H672.425L672.428 91.1614ZM659.908 76.7637H672.859C674.723 76.7637 676.381 77.0354 677.829 77.5711C679.277 78.1184 680.474 78.8715 681.423 79.8342C682.17 80.5989 682.742 81.4917 683.142 82.5165C683.546 83.5375 683.748 84.6632 683.748 85.8937V85.983C683.748 87.2718 683.546 88.4208 683.142 89.4301C682.738 90.4394 682.178 91.3167 681.442 92.0659C680.71 92.8112 679.845 93.4245 678.839 93.9097C677.833 94.3911 676.747 94.7366 675.569 94.9384L684.834 107.496H678.473L669.73 95.5556H665.053V107.496H659.9V76.7598L659.908 76.7637Z" fill="#FCFCFD"/>
<path d="M551.723 76.5344C543.304 76.5344 536.478 83.4868 536.478 92.0618C536.478 100.637 543.304 107.589 551.723 107.589C560.142 107.589 566.972 100.637 566.972 92.0618C566.972 83.4868 560.146 76.5344 551.723 76.5344ZM551.723 102.356C546.143 102.356 541.615 97.7487 541.615 92.0618C541.615 86.3749 546.139 81.7671 551.723 81.7671C557.307 81.7671 561.831 86.3749 561.831 92.0618C561.831 97.7487 557.307 102.356 551.723 102.356Z" fill="#FCFCFD"/>
<path d="M526.581 47.9409L518.828 63.2121V70.7506H513.374V63.2121L505.622 47.9409H511.812L516.149 57.4941L520.456 47.9409H526.581Z" fill="#FCFCFD"/>
<path d="M533.602 52.3934V57.0089H540.908V61.2983H533.602V66.302H541.865V70.7545H528.147V47.9448H541.865V52.3973H533.602V52.3934Z" fill="#FCFCFD"/>
<path d="M558.707 66.7212H550.349L549.007 70.7506H543.298L551.401 47.9409H557.716L565.819 70.7506H560.045L558.703 66.7212H558.707ZM557.305 62.4318L554.53 54.082L551.786 62.4318H557.305Z" fill="#FCFCFD"/>
<path d="M579.063 70.7506L574.406 62.1407H573.099V70.7506H567.645V47.9409H576.799C578.564 47.9409 580.07 48.2553 581.312 48.8842C582.558 49.5131 583.488 50.3748 584.106 51.4656C584.723 52.5603 585.032 53.7792 585.032 55.1223C585.032 56.6401 584.613 57.9949 583.77 59.1827C582.928 60.3744 581.689 61.2207 580.054 61.7176L585.223 70.7506H579.063ZM573.099 58.2084H576.479C577.478 58.2084 578.229 57.9599 578.728 57.4592C579.227 56.9623 579.479 56.2558 579.479 55.3475C579.479 54.4391 579.227 53.7986 578.728 53.3017C578.229 52.8049 577.478 52.5525 576.479 52.5525H573.099V58.2084Z" fill="#FCFCFD"/>
<path d="M591.508 70.1638C590.212 69.6243 589.176 68.8207 588.398 67.761C587.621 66.7013 587.213 65.4202 587.171 63.9257H592.979C593.063 64.772 593.349 65.4164 593.841 65.8589C594.329 66.3014 594.969 66.5266 595.754 66.5266C596.539 66.5266 597.199 66.3364 597.667 65.9598C598.136 65.5794 598.369 65.0554 598.369 64.3838C598.369 63.8209 598.182 63.3551 597.812 62.9863C597.439 62.6176 596.981 62.3148 596.44 62.078C595.899 61.8412 595.125 61.5695 594.127 61.2667C592.678 60.8125 591.501 60.3583 590.586 59.9003C589.671 59.4461 588.882 58.7745 588.227 57.8856C587.567 56.9967 587.236 55.8399 587.236 54.4075C587.236 52.2841 587.99 50.6227 589.5 49.4193C591.009 48.2159 592.976 47.6143 595.403 47.6143C597.831 47.6143 599.859 48.2159 601.368 49.4193C602.878 50.6227 603.686 52.2958 603.792 54.4385H597.888C597.847 53.701 597.58 53.1226 597.092 52.6995C596.604 52.2763 595.975 52.0667 595.209 52.0667C594.55 52.0667 594.016 52.2453 593.612 52.6024C593.208 52.9595 593.006 53.4758 593.006 54.1474C593.006 54.8849 593.345 55.4594 594.028 55.8709C594.71 56.2824 595.773 56.7288 597.218 57.2024C598.662 57.6993 599.84 58.1767 600.743 58.6309C601.646 59.0851 602.428 59.7489 603.087 60.6145C603.747 61.4802 604.074 62.5981 604.074 63.9607C604.074 65.3232 603.75 66.4412 603.102 67.5009C602.454 68.5607 601.513 69.4069 600.278 70.0357C599.043 70.6646 597.587 70.979 595.907 70.979C594.226 70.979 592.8 70.7073 591.504 70.1677L591.508 70.1638Z" fill="#FCFCFD"/>
<path d="M617.716 69.4811C615.963 68.4835 614.568 67.0938 613.535 65.3043C612.502 63.5186 611.987 61.5078 611.987 59.2758C611.987 57.0437 612.502 55.0407 613.535 53.2628C614.568 51.4849 615.959 50.0991 617.716 49.1053C619.469 48.1077 621.401 47.6108 623.505 47.6108C625.609 47.6108 627.541 48.1077 629.295 49.1053C631.048 50.103 632.431 51.4888 633.441 53.2628C634.451 55.0407 634.958 57.0437 634.958 59.2758C634.958 61.5078 634.448 63.5147 633.426 65.3043C632.405 67.0899 631.021 68.4835 629.279 69.4811C627.534 70.4787 625.609 70.9756 623.505 70.9756C621.401 70.9756 619.469 70.4787 617.716 69.4811ZM627.797 64.0892C628.872 62.8781 629.409 61.2749 629.409 59.2796C629.409 57.2844 628.872 55.6579 627.797 54.4545C626.722 53.2511 625.293 52.6495 623.505 52.6495C621.718 52.6495 620.254 53.2473 619.183 54.4351C618.108 55.6268 617.571 57.2417 617.571 59.2758C617.571 61.3098 618.108 62.8975 619.183 64.1009C620.258 65.3043 621.699 65.9059 623.505 65.9059C625.312 65.9059 626.722 65.3004 627.797 64.0854V64.0892Z" fill="#FCFCFD"/>
<path d="M651.934 47.9409V52.3934H642.81V57.203H649.636V61.5235H642.81V70.7506H637.355V47.9409H651.934Z" fill="#FCFCFD"/>
<path d="M454.206 10H440.07C438.885 10 437.921 10.9821 437.921 12.1894V12.4688C437.921 17.7598 436.186 21.8202 432.768 24.5375C429.265 27.3208 424.013 28.7299 417.149 28.7299C415.963 28.7299 414.999 29.712 414.999 30.9192V44.758C414.999 45.9652 415.963 46.9512 417.149 46.9512C425.991 46.9512 432.909 44.331 437.726 39.1487C437.734 39.1487 437.757 39.1487 437.783 39.1992V107.811C437.783 109.018 438.748 110 439.937 110H454.21C455.396 110 456.364 109.018 456.364 107.811V12.1894C456.364 10.9821 455.399 10 454.21 10H454.206Z" fill="#FCFCFD"/>
<path d="M472.404 23.2835C457.124 38.8574 457.124 64.0234 472.404 79.4808L500.044 107.628V75.2574C494.072 75.2496 488.084 72.9361 483.491 68.3167C474.417 59.0624 474.417 43.9853 483.491 34.5952C492.574 25.205 507.354 25.3408 516.57 34.5952C517.576 35.6044 518.464 36.6913 519.25 37.8248H536.816C534.926 32.5106 531.884 27.5302 527.684 23.2835C512.408 7.70954 487.68 7.70954 472.404 23.2835Z" fill="#FCFCFD"/>
</svg>
